<svg width="200" height="19" viewBox="0 0 200 19" fill="none" xmlns="http://www.w3.org/2000/svg">
<path d="M4.64324 0.0722942C4.67982 0.0389473 4.72713 0.0201771 4.77661 0.0190749C5.34809 0.00634498 5.93448 0.00838964 6.50516 0.0133132C10.5089 0.0477499 14.528 -0.0328613 18.5308 0.0164545C18.6597 0.0180422 18.7557 0.13581 18.7314 0.26239L17.9123 4.53762C17.8934 4.6362 17.806 4.70703 17.7056 4.70583C14.7269 4.67021 12.4959 4.70605 9.49425 4.70181C9.44665 4.70174 9.40028 4.71758 9.36408 4.74849C8.95558 5.09727 8.15211 5.94362 7.77674 6.3187L5.05975 9.04076C4.92945 9.1713 5.02191 9.39423 5.20636 9.39424L18.5294 9.39456C18.6594 9.39457 18.7573 9.513 18.7328 9.64072L17.9112 13.9255C17.8925 14.0231 17.8071 14.0936 17.7077 14.0936L9.48473 14.092C9.43973 14.092 9.3961 14.1061 9.36152 14.1349C9.02608 14.4143 8.20494 15.2748 7.91439 15.5654L4.75687 18.7246C4.71805 18.7634 4.66539 18.7853 4.61048 18.7853L0.210742 18.7879C0.0962904 18.788 0.00347413 18.6952 0.00347664 18.5807L0.0035753 14.0891C0.00357533 14.0879 0.00403219 14.0868 0.00485229 14.0859C0.199651 13.8792 0.423942 13.6541 0.630668 13.4576C1.88105 12.2689 3.07304 10.9491 4.32666 9.7563C4.46351 9.62608 4.37199 9.39287 4.18309 9.39301L0.00485229 9.39588L1.16147e-07 4.79865C-5.32532e-05 4.74808 0.0182872 4.69923 0.0520586 4.6616C0.629018 4.01864 1.5936 3.10454 2.20814 2.49489C2.95555 1.75344 3.87986 0.768276 4.64324 0.0722942Z" fill="#F40041"/>
<path d="M41.3309 4.29441L40.6599 8.02518C40.1231 11.0313 39.3448 12.588 35.3724 12.588H35.2919L39.4521 18.1976C39.64 18.4391 39.4521 18.788 39.1569 18.788H34.2452C33.7352 18.788 33.5205 18.6807 33.2789 18.3318L29.6555 12.8564H25.4953L24.5559 18.1976C24.5022 18.5733 24.2338 18.788 23.8312 18.788H19.671C19.2684 18.788 19.0805 18.5733 19.1342 18.1976L22.2477 0.590481C22.3282 0.214721 22.5697 0 22.9723 0H37.6002C40.2573 0 41.4383 0.912563 41.4383 3.00609C41.4383 3.40869 41.4115 3.83813 41.3309 4.29441ZM34.111 4.32125H27.0252L26.2737 8.53514H33.3594C34.9162 8.53514 35.1846 8.29358 35.4261 7.00525L35.614 5.85113C35.6677 5.55589 35.6945 5.31433 35.6945 5.12645C35.6945 4.45545 35.3188 4.32125 34.111 4.32125Z" fill="#F40041"/>
<path d="M56.2473 18.2244L55.6836 15.5941H46.6386L45.1623 18.2244C44.9745 18.6002 44.6792 18.788 44.2229 18.788H39.6601C39.3112 18.788 39.177 18.5196 39.3917 18.1707L49.8594 0.563642C50.0741 0.187881 50.3693 0 50.8524 0H56.972C57.4282 0 57.643 0.187881 57.7235 0.563642L62.0179 18.1707C62.0716 18.5196 61.8837 18.788 61.5616 18.788H57.0257C56.5425 18.788 56.3278 18.6002 56.2473 18.2244ZM53.2144 3.97233L49.0273 11.3802H54.7711L53.2144 3.97233Z" fill="#F40041"/>
<path d="M62.9825 14.4936L64.7807 4.29441C65.2907 1.28832 66.1227 0 70.0414 0H80.5895C83.3004 0 84.4008 0.697842 84.4008 2.71084C84.4008 3.14029 84.3203 3.65025 84.2398 4.21389L83.9445 5.98533C83.8909 6.36109 83.6225 6.57581 83.2199 6.57581H79.1939C78.7913 6.57581 78.6302 6.36109 78.6839 5.98533L78.8181 5.15329C78.8449 5.07277 78.8449 4.96541 78.8449 4.91173C78.8449 4.50913 78.6034 4.32125 78.0934 4.32125H72.2691C70.5245 4.32125 70.1488 4.58965 69.8804 6.03901L68.6994 12.749C68.6457 13.0443 68.6189 13.2858 68.6189 13.4737C68.6189 14.3057 69.0752 14.4668 70.4708 14.4668H76.2951C76.9125 14.4668 77.2345 14.1984 77.3151 13.6347L77.4761 12.8027C77.5298 12.4269 77.7982 12.2122 78.2008 12.2122H82.2268C82.6294 12.2122 82.7904 12.4269 82.7367 12.8027L82.4147 14.5741C81.851 17.7413 81.3947 18.788 77.2882 18.788H66.7401C64.1097 18.788 62.8483 17.8755 62.8483 15.7819C62.8483 15.3793 62.9019 14.9499 62.9825 14.4936Z" fill="#F40041"/>
<path d="M89.4302 18.1976L91.8995 4.32125H85.4847C85.0821 4.32125 84.8942 4.10653 84.9479 3.73077L85.5115 0.590481C85.592 0.214721 85.8336 0 86.2362 0H104.487C104.89 0 105.078 0.214721 104.997 0.590481L104.434 3.73077C104.38 4.10653 104.139 4.32125 103.736 4.32125H97.3212L94.8519 18.1976C94.7982 18.5733 94.5298 18.788 94.154 18.788H89.967C89.5644 18.788 89.3765 18.5733 89.4302 18.1976Z" fill="#F40041"/>
<path d="M111.705 0.590481L108.591 18.1976C108.538 18.5733 108.269 18.788 107.867 18.788H103.707C103.304 18.788 103.116 18.5733 103.17 18.1976L106.283 0.590481C106.364 0.214721 106.605 0 107.008 0H111.168C111.571 0 111.785 0.214721 111.705 0.590481Z" fill="#F40041"/>
<path d="M133.824 4.29441L132.026 14.4936C131.489 17.4997 130.737 18.788 126.792 18.788H115.331C112.701 18.788 111.439 17.8755 111.439 15.7819C111.439 15.3793 111.493 14.9499 111.573 14.4936L113.372 4.29441C113.882 1.28832 114.714 0 118.632 0H130.093C132.75 0 133.931 0.912563 133.931 3.03293C133.931 3.40869 133.904 3.83813 133.824 4.29441ZM126.335 4.32125H120.86C119.115 4.32125 118.74 4.58965 118.471 6.03901L117.29 12.749C117.237 13.0443 117.21 13.2858 117.21 13.4737C117.21 14.3057 117.666 14.4668 119.062 14.4668H124.537C126.309 14.4668 126.658 14.1984 126.899 12.749L128.08 6.03901C128.134 5.71693 128.161 5.47537 128.161 5.26065C128.161 4.48229 127.731 4.32125 126.335 4.32125Z" fill="#F40041"/>
<path d="M153.502 18.788H146.685C146.255 18.788 145.987 18.6538 145.906 18.3049L141.102 4.29441L138.633 18.1976C138.579 18.5733 138.311 18.788 137.935 18.788H134.177C133.775 18.788 133.587 18.5733 133.64 18.1976L136.754 0.590481C136.834 0.214721 137.076 0 137.478 0H144.296C144.725 0 144.967 0.1342 145.074 0.483121L149.879 14.5205L152.321 0.590481C152.402 0.214721 152.67 0 153.073 0H156.803C157.206 0 157.394 0.214721 157.313 0.590481L154.2 18.1976C154.146 18.5733 153.905 18.788 153.502 18.788Z" fill="#F40041"/>
<path d="M160.605 0H178.239C178.642 0 178.83 0.214721 178.749 0.590481L178.185 3.73077C178.132 4.10653 177.89 4.32125 177.488 4.32125H164.658L164.121 7.24681H174.857C175.233 7.24681 175.448 7.46153 175.367 7.83729L174.857 10.7897C174.804 11.1655 174.508 11.3802 174.133 11.3802H163.396L162.86 14.4668H175.689C176.092 14.4668 176.253 14.6815 176.199 15.0573L175.636 18.1976C175.582 18.5733 175.34 18.788 174.938 18.788H157.304C156.901 18.788 156.713 18.5733 156.767 18.1976L159.88 0.590481C159.961 0.214721 160.203 0 160.605 0Z" fill="#F40041"/>
<path d="M199.78 5.66325L198.465 13.1248C197.821 16.7213 196.076 18.788 191.54 18.788H178.228C177.825 18.788 177.637 18.5733 177.691 18.1976L180.804 0.590481C180.885 0.214721 181.126 0 181.529 0H194.841C198.089 0 199.887 1.58356 199.887 4.34809C199.887 4.77753 199.861 5.20697 199.78 5.66325ZM193.151 12.4001L194.224 6.38793C194.251 6.14637 194.278 5.93165 194.278 5.74377C194.278 4.72385 193.634 4.32125 192.131 4.32125H185.582L183.783 14.4668H190.332C192.131 14.4668 192.882 13.93 193.151 12.4001Z" fill="#F40041"/>
</svg>
